<svg xmlns="http://www.w3.org/2000/svg" width="512" height="512" viewBox="0 0 612 612">
  <path d="M612 295.672c0 140.552-103.671 257.344-238.56 277.937 1.138-6.238 1.457-12.698.691-19.244l-1.86-15.903c47.891-8.159 91.129-30.134 125.4-61.737-2.057-1.711-4.106-3.93-6.126-6.876-9.102-13.281 2.8-26.459 2.8-38.073 0-11.392-22.967-10.455-23.808-18-2.902-26.13 16.035-26.486 26.131-36.582s-9.979-33.049-22.946-31.568c-13.055 1.394-49.802-6.029-46.444-34.144 4.091-34.243-43.627-31.222-50.46-47.205-9.961-23.297 6.598-51.873 28.196-58.365 30.592-9.195 60.729-34.152 58.375-61.934-2.667-31.465-16.909-59.842-40.366-76.699a244.557 244.557 0 0 0-78.269-17.547c-24.577.972-46.185 6.434-45.199 17.686 2.417 27.574 80.828 34.736 67.67 60.512-6.86 13.437-58.344 32.402-48.729 52.4 6.254 13.005 21.645 1.859 15.899 26.826-2.644 11.488-12.717 33.073-28.208 34.466-15.841 1.479-29.032-40.487-72.15-41.863-20.384-.652-49.101 31.804-24.717 54.83 14.766 13.944 42.475-16.759 50.653 7.225 5.763 16.901-.776 52.405 26.121 67.243 9.805 5.409 24.836 10.124 39.702 17.678-22.065 4.506-49.177 12.914-81.192 25.246l-26.974-7.117c11.292-9.4 29.639-16.017 25.023-36.557-6.781-30.177-59.178-18.796-95.301-54.918-11.082-11.08-34.719-47.873-34.622-92.077-18.006 34.202-28.254 73.098-28.254 114.361 0 12.701.969 25.181 2.832 37.37-.425-.007-.845-.081-1.269-.081-11.376 0-22.533 2.39-32.873 6.909a282.006 282.006 0 0 1-3.503-44.197c0-155.035 126.133-281.172 281.167-281.172C485.867 14.5 612 140.637 612 295.672zm-210.911 81.952l-68.67 31.565 1.065-14.963 44.486-20.082c-6.345-.454-12.919-.627-19.483-.627-24.579 0-66.106 12.442-112.036 30.673L99.144 365.335a51.428 51.428 0 0 0-40.479 6.18l-7.243 4.55c-7.071 4.442-7.146 14.722-.141 19.268l88.549 57.448c-21.153 10.818-41.222 21.805-58.914 32.298l-45.438-24.056a28.574 28.574 0 0 0-23.992-1.273l-4.301 1.724c-6.414 2.567-9.101 10.195-5.711 16.216l25.031 44.472.011-.004c-9.444 8.125-14.826 14.863-14.826 19.526 0 13.956 17.174 17.444 32.312 17.444 27 0 383.567-81.641 383.567-155.605-.002-14.648-10.02-21.974-26.48-25.899zM250.751 522.033l78.463-27.64c3.456-1.218 7.149 1.086 7.575 4.726l6.879 58.815a34.292 34.292 0 0 1-19.604 35.078l-7.359 3.42a11.43 11.43 0 0 1-13.397-2.812L248.36 531.2c-2.675-3.04-1.429-7.821 2.391-9.167z" fill="#FFF"/>
</svg>
